<svg width="78" height="30" viewBox="0 0 78 30" fill="none" xmlns="http://www.w3.org/2000/svg">
<path d="M4.04545 0.90909V30H0.522727V0.90909H4.04545ZM11.1087 30V0.90909H20.9382C23.2204 0.90909 25.0859 1.32102 26.5348 2.14489C27.9931 2.95928 29.0727 4.0625 29.7734 5.45455C30.4742 6.84659 30.8246 8.39962 30.8246 10.1136C30.8246 11.8277 30.4742 13.3854 29.7734 14.7869C29.0822 16.1884 28.0121 17.3059 26.5632 18.1392C25.1143 18.9631 23.2583 19.375 20.995 19.375H13.9496V16.25H20.8814C22.4439 16.25 23.6986 15.9801 24.6456 15.4403C25.5926 14.9006 26.2791 14.1714 26.7053 13.2528C27.1409 12.3248 27.3587 11.2784 27.3587 10.1136C27.3587 8.94886 27.1409 7.9072 26.7053 6.98864C26.2791 6.07008 25.5878 5.35038 24.6314 4.82955C23.675 4.29924 22.406 4.03409 20.8246 4.03409H14.6314V30H11.1087ZM36.4993 30V0.90909H53.9425V4.03409H40.022V13.8636H52.6357V16.9886H40.022V30H36.4993Z" fill="#43999E"/>
<path d="M59.9759 30V0.90909H77.5327V4.03409H63.4986V13.8636H76.6236V16.9886H63.4986V26.875H77.7599V30H59.9759Z" fill="url(#paint0_linear_6_193)"/>
<defs>
<linearGradient id="paint0_linear_6_193" x1="60.3014" y1="-9" x2="81" y2="-9" gradientUnits="userSpaceOnUse">
<stop stop-color="#43999E"/>
<stop offset="1" stop-color="#95E3C9"/>
</linearGradient>
</defs>
</svg>
