<svg width="380" height="30" viewBox="0 0 380 30" fill="none" xmlns="http://www.w3.org/2000/svg">
<path d="M3.28409 1.18182V23H0.642046V1.18182H3.28409ZM10.7548 13.1562V23H8.24059V6.63636H10.6696V9.19318H10.8826C11.2662 8.36222 11.8485 7.6946 12.6298 7.19034C13.411 6.67898 14.4196 6.4233 15.6554 6.4233C16.7633 6.4233 17.7328 6.65057 18.5637 7.10511C19.3947 7.55256 20.041 8.23438 20.5027 9.15057C20.9643 10.0597 21.1951 11.2102 21.1951 12.6023V23H18.6809V12.7727C18.6809 11.4872 18.3471 10.4858 17.6795 9.76847C17.0119 9.04403 16.0957 8.68182 14.9309 8.68182C14.1284 8.68182 13.411 8.85582 12.7789 9.20383C12.1539 9.55185 11.6603 10.0597 11.2981 10.7273C10.9359 11.3949 10.7548 12.2045 10.7548 13.1562ZM32.9059 6.63636V8.76704H24.4258V6.63636H32.9059ZM26.8974 2.71591H29.4116V18.3125C29.4116 19.0227 29.5146 19.5554 29.7205 19.9105C29.9336 20.2585 30.2035 20.4929 30.5302 20.6136C30.864 20.7273 31.2156 20.7841 31.5849 20.7841C31.8619 20.7841 32.0891 20.7699 32.2667 20.7415C32.4442 20.706 32.5863 20.6776 32.6928 20.6562L33.2042 22.9148C33.0337 22.9787 32.7958 23.0426 32.4904 23.1065C32.185 23.1776 31.7979 23.2131 31.3292 23.2131C30.619 23.2131 29.9229 23.0604 29.2411 22.755C28.5664 22.4496 28.0053 21.9844 27.5579 21.3594C27.1175 20.7344 26.8974 19.946 26.8974 18.9943V2.71591ZM43.3729 23.3409C41.7962 23.3409 40.4361 22.9929 39.2926 22.2969C38.1562 21.5938 37.2791 20.6136 36.6612 19.3565C36.0504 18.0923 35.745 16.6222 35.745 14.946C35.745 13.2699 36.0504 11.7926 36.6612 10.5142C37.2791 9.22869 38.1385 8.22727 39.2393 7.50994C40.3473 6.78551 41.6399 6.4233 43.1172 6.4233C43.9695 6.4233 44.8111 6.56534 45.642 6.84943C46.473 7.13352 47.2294 7.59517 47.9112 8.23438C48.593 8.86648 49.1364 9.70455 49.5412 10.7486C49.946 11.7926 50.1484 13.0781 50.1484 14.6051V15.6705H37.5348V13.4972H47.5916C47.5916 12.5739 47.407 11.75 47.0376 11.0256C46.6754 10.3011 46.157 9.7294 45.4822 9.31037C44.8146 8.89133 44.0263 8.68182 43.1172 8.68182C42.1158 8.68182 41.2493 8.9304 40.5178 9.42756C39.7933 9.91761 39.2358 10.5568 38.8452 11.3452C38.4545 12.1335 38.2592 12.9787 38.2592 13.8807V15.3295C38.2592 16.5653 38.4723 17.6129 38.8984 18.4723C39.3317 19.3246 39.9318 19.9744 40.6989 20.4219C41.4659 20.8622 42.3572 21.0824 43.3729 21.0824C44.0334 21.0824 44.63 20.9901 45.1626 20.8054C45.7024 20.6136 46.1676 20.3295 46.5582 19.9531C46.9489 19.5696 47.2507 19.0937 47.4638 18.5256L49.8928 19.2074C49.6371 20.0312 49.2074 20.7557 48.6037 21.3807C48 21.9986 47.2543 22.4815 46.3665 22.8295C45.4787 23.1705 44.4808 23.3409 43.3729 23.3409ZM53.973 23V6.63636H56.402V9.10795H56.5724C56.8707 8.2983 57.4105 7.64134 58.1918 7.13707C58.973 6.63281 59.8537 6.38068 60.8338 6.38068C61.0185 6.38068 61.2493 6.38423 61.5263 6.39133C61.8033 6.39844 62.0128 6.40909 62.1548 6.4233V8.98011C62.0696 8.95881 61.8743 8.92685 61.5689 8.88423C61.2706 8.83452 60.9545 8.80966 60.6207 8.80966C59.8253 8.80966 59.1151 8.97656 58.4901 9.31037C57.8722 9.63707 57.3821 10.0916 57.0199 10.674C56.6648 11.2493 56.4872 11.9062 56.4872 12.6449V23H53.973ZM65.476 23V1.18182H72.8482C74.5598 1.18182 75.959 1.49077 77.0456 2.10866C78.1394 2.71946 78.949 3.54688 79.4746 4.59091C80.0002 5.63494 80.263 6.79972 80.263 8.08523C80.263 9.37074 80.0002 10.5391 79.4746 11.5902C78.9561 12.6413 78.1536 13.4794 77.0669 14.1044C75.9803 14.7223 74.5882 15.0312 72.8908 15.0312H67.6067V12.6875H72.8056C73.9775 12.6875 74.9185 12.4851 75.6287 12.0803C76.339 11.6754 76.8539 11.1286 77.1735 10.4396C77.5002 9.74361 77.6635 8.95881 77.6635 8.08523C77.6635 7.21165 77.5002 6.4304 77.1735 5.74148C76.8539 5.05256 76.3354 4.51278 75.6181 4.12216C74.9007 3.72443 73.949 3.52557 72.763 3.52557H68.1181V23H65.476ZM86.6923 1.18182V23H84.1781V1.18182H86.6923ZM96.1126 23.3835C95.0756 23.3835 94.1346 23.1882 93.2894 22.7976C92.4442 22.3999 91.7731 21.8281 91.2759 21.0824C90.7788 20.3295 90.5302 19.4205 90.5302 18.3551C90.5302 17.4176 90.7148 16.6577 91.0842 16.0753C91.4535 15.4858 91.9471 15.0241 92.565 14.6903C93.1829 14.3565 93.8647 14.108 94.6104 13.9446C95.3633 13.7741 96.1197 13.6392 96.8796 13.5398C97.8739 13.4119 98.68 13.3161 99.2979 13.2521C99.9229 13.1811 100.377 13.0639 100.662 12.9006C100.953 12.7372 101.098 12.4531 101.098 12.0483V11.9631C101.098 10.9119 100.811 10.0952 100.235 9.51278C99.6673 8.9304 98.8043 8.6392 97.6467 8.6392C96.4464 8.6392 95.5053 8.90199 94.8235 9.42756C94.1417 9.95312 93.6623 10.5142 93.3853 11.1108L90.9989 10.2585C91.4251 9.2642 91.9933 8.49006 92.7035 7.93608C93.4208 7.375 94.2021 6.98437 95.0472 6.7642C95.8995 6.53693 96.7376 6.4233 97.5614 6.4233C98.087 6.4233 98.6907 6.48722 99.3725 6.61506C100.061 6.73579 100.725 6.98793 101.365 7.37145C102.011 7.75497 102.547 8.33381 102.973 9.10795C103.4 9.8821 103.613 10.919 103.613 12.2188V23H101.098V20.7841H100.971C100.8 21.1392 100.516 21.5192 100.118 21.924C99.7205 22.3288 99.1914 22.6733 98.5309 22.9574C97.8704 23.2415 97.0643 23.3835 96.1126 23.3835ZM96.4961 21.125C97.4904 21.125 98.3285 20.9297 99.0103 20.5391C99.6992 20.1484 100.218 19.6442 100.566 19.0263C100.921 18.4084 101.098 17.7585 101.098 17.0767V14.7756C100.992 14.9034 100.757 15.0206 100.395 15.1271C100.04 15.2266 99.6282 15.3153 99.1594 15.3935C98.6978 15.4645 98.2468 15.5284 97.8065 15.5852C97.3732 15.6349 97.0217 15.6776 96.7518 15.7131C96.0984 15.7983 95.4876 15.9368 94.9194 16.1286C94.3583 16.3132 93.9038 16.5937 93.5558 16.9702C93.2148 17.3395 93.0444 17.8437 93.0444 18.483C93.0444 19.3565 93.3675 20.017 94.0138 20.4645C94.6673 20.9048 95.4947 21.125 96.4961 21.125ZM110.716 13.1562V23H108.202V6.63636H110.631V9.19318H110.844C111.227 8.36222 111.809 7.6946 112.591 7.19034C113.372 6.67898 114.381 6.4233 115.616 6.4233C116.724 6.4233 117.694 6.65057 118.525 7.10511C119.356 7.55256 120.002 8.23438 120.464 9.15057C120.925 10.0597 121.156 11.2102 121.156 12.6023V23H118.642V12.7727C118.642 11.4872 118.308 10.4858 117.64 9.76847C116.973 9.04403 116.057 8.68182 114.892 8.68182C114.089 8.68182 113.372 8.85582 112.74 9.20383C112.115 9.55185 111.621 10.0597 111.259 10.7273C110.897 11.3949 110.716 12.2045 110.716 13.1562ZM132.611 23.3409C131.034 23.3409 129.674 22.9929 128.531 22.2969C127.395 21.5938 126.517 20.6136 125.9 19.3565C125.289 18.0923 124.983 16.6222 124.983 14.946C124.983 13.2699 125.289 11.7926 125.9 10.5142C126.517 9.22869 127.377 8.22727 128.478 7.50994C129.586 6.78551 130.878 6.4233 132.355 6.4233C133.208 6.4233 134.049 6.56534 134.88 6.84943C135.711 7.13352 136.468 7.59517 137.15 8.23438C137.831 8.86648 138.375 9.70455 138.779 10.7486C139.184 11.7926 139.387 13.0781 139.387 14.6051V15.6705H126.773V13.4972H136.83C136.83 12.5739 136.645 11.75 136.276 11.0256C135.914 10.3011 135.395 9.7294 134.721 9.31037C134.053 8.89133 133.265 8.68182 132.355 8.68182C131.354 8.68182 130.488 8.9304 129.756 9.42756C129.032 9.91761 128.474 10.5568 128.083 11.3452C127.693 12.1335 127.498 12.9787 127.498 13.8807V15.3295C127.498 16.5653 127.711 17.6129 128.137 18.4723C128.57 19.3246 129.17 19.9744 129.937 20.4219C130.704 20.8622 131.596 21.0824 132.611 21.0824C133.272 21.0824 133.868 20.9901 134.401 20.8054C134.941 20.6136 135.406 20.3295 135.797 19.9531C136.187 19.5696 136.489 19.0937 136.702 18.5256L139.131 19.2074C138.875 20.0312 138.446 20.7557 137.842 21.3807C137.238 21.9986 136.493 22.4815 135.605 22.8295C134.717 23.1705 133.719 23.3409 132.611 23.3409ZM150.328 6.63636V8.76704H141.848V6.63636H150.328ZM144.319 2.71591H146.833V18.3125C146.833 19.0227 146.936 19.5554 147.142 19.9105C147.355 20.2585 147.625 20.4929 147.952 20.6136C148.286 20.7273 148.637 20.7841 149.007 20.7841C149.284 20.7841 149.511 20.7699 149.689 20.7415C149.866 20.706 150.008 20.6776 150.115 20.6562L150.626 22.9148C150.456 22.9787 150.218 23.0426 149.912 23.1065C149.607 23.1776 149.22 23.2131 148.751 23.2131C148.041 23.2131 147.345 23.0604 146.663 22.755C145.988 22.4496 145.427 21.9844 144.98 21.3594C144.539 20.7344 144.319 19.946 144.319 18.9943V2.71591ZM158.925 23.3835C157.888 23.3835 156.947 23.1882 156.102 22.7976C155.257 22.3999 154.586 21.8281 154.088 21.0824C153.591 20.3295 153.343 19.4205 153.343 18.3551C153.343 17.4176 153.527 16.6577 153.897 16.0753C154.266 15.4858 154.76 15.0241 155.377 14.6903C155.995 14.3565 156.677 14.108 157.423 13.9446C158.176 13.7741 158.932 13.6392 159.692 13.5398C160.686 13.4119 161.493 13.3161 162.11 13.2521C162.735 13.1811 163.19 13.0639 163.474 12.9006C163.765 12.7372 163.911 12.4531 163.911 12.0483V11.9631C163.911 10.9119 163.623 10.0952 163.048 9.51278C162.48 8.9304 161.617 8.6392 160.459 8.6392C159.259 8.6392 158.318 8.90199 157.636 9.42756C156.954 9.95312 156.475 10.5142 156.198 11.1108L153.811 10.2585C154.238 9.2642 154.806 8.49006 155.516 7.93608C156.233 7.375 157.015 6.98437 157.86 6.7642C158.712 6.53693 159.55 6.4233 160.374 6.4233C160.9 6.4233 161.503 6.48722 162.185 6.61506C162.874 6.73579 163.538 6.98793 164.177 7.37145C164.824 7.75497 165.36 8.33381 165.786 9.10795C166.212 9.8821 166.425 10.919 166.425 12.2188V23H163.911V20.7841H163.783C163.613 21.1392 163.328 21.5192 162.931 21.924C162.533 22.3288 162.004 22.6733 161.343 22.9574C160.683 23.2415 159.877 23.3835 158.925 23.3835ZM159.309 21.125C160.303 21.125 161.141 20.9297 161.823 20.5391C162.512 20.1484 163.03 19.6442 163.378 19.0263C163.733 18.4084 163.911 17.7585 163.911 17.0767V14.7756C163.804 14.9034 163.57 15.0206 163.208 15.1271C162.853 15.2266 162.441 15.3153 161.972 15.3935C161.51 15.4645 161.059 15.5284 160.619 15.5852C160.186 15.6349 159.834 15.6776 159.564 15.7131C158.911 15.7983 158.3 15.9368 157.732 16.1286C157.171 16.3132 156.716 16.5937 156.368 16.9702C156.027 17.3395 155.857 17.8437 155.857 18.483C155.857 19.3565 156.18 20.017 156.826 20.4645C157.48 20.9048 158.307 21.125 159.309 21.125ZM171.014 23V6.63636H173.443V9.10795H173.613C173.912 8.2983 174.452 7.64134 175.233 7.13707C176.014 6.63281 176.895 6.38068 177.875 6.38068C178.059 6.38068 178.29 6.38423 178.567 6.39133C178.844 6.39844 179.054 6.40909 179.196 6.4233V8.98011C179.111 8.95881 178.915 8.92685 178.61 8.88423C178.312 8.83452 177.996 8.80966 177.662 8.80966C176.866 8.80966 176.156 8.97656 175.531 9.31037C174.913 9.63707 174.423 10.0916 174.061 10.674C173.706 11.2493 173.528 11.9062 173.528 12.6449V23H171.014ZM184.294 29.1364C183.867 29.1364 183.487 29.1009 183.154 29.0298C182.82 28.9659 182.589 28.902 182.461 28.8381L183.1 26.6222C183.711 26.7784 184.251 26.8352 184.72 26.7926C185.188 26.75 185.604 26.5405 185.966 26.1641C186.335 25.7947 186.673 25.1946 186.978 24.3636L187.447 23.0852L181.396 6.63636H184.123L188.64 19.6761H188.811L193.328 6.63636H196.055L189.109 25.3864C188.796 26.2315 188.409 26.9311 187.948 27.4851C187.486 28.0462 186.95 28.4616 186.339 28.7315C185.735 29.0014 185.053 29.1364 184.294 29.1364ZM208.152 23V1.18182H221.234V3.52557H210.794V10.8977H220.254V13.2415H210.794V23H208.152ZM225.418 23V6.63636H227.933V23H225.418ZM226.697 3.90909C226.207 3.90909 225.784 3.74219 225.429 3.40838C225.081 3.07457 224.907 2.6733 224.907 2.20455C224.907 1.7358 225.081 1.33452 225.429 1.00071C225.784 0.666903 226.207 0.5 226.697 0.5C227.187 0.5 227.606 0.666903 227.954 1.00071C228.309 1.33452 228.487 1.7358 228.487 2.20455C228.487 2.6733 228.309 3.07457 227.954 3.40838C227.606 3.74219 227.187 3.90909 226.697 3.90909ZM235.052 1.18182V23H232.537V1.18182H235.052ZM246.517 23.3409C244.941 23.3409 243.581 22.9929 242.437 22.2969C241.301 21.5938 240.424 20.6136 239.806 19.3565C239.195 18.0923 238.89 16.6222 238.89 14.946C238.89 13.2699 239.195 11.7926 239.806 10.5142C240.424 9.22869 241.283 8.22727 242.384 7.50994C243.492 6.78551 244.784 6.4233 246.262 6.4233C247.114 6.4233 247.956 6.56534 248.787 6.84943C249.618 7.13352 250.374 7.59517 251.056 8.23438C251.738 8.86648 252.281 9.70455 252.686 10.7486C253.091 11.7926 253.293 13.0781 253.293 14.6051V15.6705H240.679V13.4972H250.736C250.736 12.5739 250.551 11.75 250.182 11.0256C249.82 10.3011 249.301 9.7294 248.627 9.31037C247.959 8.89133 247.171 8.68182 246.262 8.68182C245.26 8.68182 244.394 8.9304 243.662 9.42756C242.938 9.91761 242.38 10.5568 241.99 11.3452C241.599 12.1335 241.404 12.9787 241.404 13.8807V15.3295C241.404 16.5653 241.617 17.6129 242.043 18.4723C242.476 19.3246 243.076 19.9744 243.843 20.4219C244.61 20.8622 245.502 21.0824 246.517 21.0824C247.178 21.0824 247.775 20.9901 248.307 20.8054C248.847 20.6136 249.312 20.3295 249.703 19.9531C250.093 19.5696 250.395 19.0937 250.608 18.5256L253.037 19.2074C252.782 20.0312 252.352 20.7557 251.748 21.3807C251.145 21.9986 250.399 22.4815 249.511 22.8295C248.623 23.1705 247.625 23.3409 246.517 23.3409Z" fill="#45999E"/>
<path d="M265.896 23V1.18182H279.064V3.52557H268.538V10.8977H278.382V13.2415H268.538V20.6562H279.234V23H265.896ZM285.36 6.63636L289.28 13.3267L293.201 6.63636H296.098L290.814 14.8182L296.098 23H293.201L289.28 16.6506L285.36 23H282.462L287.661 14.8182L282.462 6.63636H285.36ZM299.686 29.1364V6.63636H302.115V9.23579H302.413C302.598 8.9517 302.854 8.58949 303.18 8.14915C303.514 7.7017 303.99 7.30398 304.608 6.95597C305.233 6.60085 306.078 6.4233 307.143 6.4233C308.521 6.4233 309.736 6.76776 310.787 7.45668C311.838 8.1456 312.658 9.12216 313.248 10.3864C313.837 11.6506 314.132 13.142 314.132 14.8608C314.132 16.5938 313.837 18.0959 313.248 19.3672C312.658 20.6314 311.841 21.6115 310.797 22.3075C309.753 22.9964 308.55 23.3409 307.186 23.3409C306.135 23.3409 305.293 23.1669 304.661 22.8189C304.029 22.4638 303.542 22.0625 303.202 21.6151C302.861 21.1605 302.598 20.7841 302.413 20.4858H302.2V29.1364H299.686ZM302.157 14.8182C302.157 16.054 302.339 17.1442 302.701 18.0888C303.063 19.0263 303.592 19.7614 304.288 20.294C304.984 20.8196 305.836 21.0824 306.845 21.0824C307.896 21.0824 308.773 20.8054 309.476 20.2514C310.187 19.6903 310.719 18.9375 311.074 17.9929C311.437 17.0412 311.618 15.983 311.618 14.8182C311.618 13.6676 311.44 12.6307 311.085 11.7074C310.737 10.777 310.208 10.0419 309.498 9.50213C308.795 8.95526 307.91 8.68182 306.845 8.68182C305.822 8.68182 304.963 8.94105 304.267 9.45952C303.571 9.97088 303.045 10.6882 302.69 11.6115C302.335 12.5277 302.157 13.5966 302.157 14.8182ZM320.481 1.18182V23H317.967V1.18182H320.481ZM331.734 23.3409C330.257 23.3409 328.961 22.9893 327.846 22.2862C326.738 21.5831 325.871 20.5994 325.246 19.3352C324.628 18.071 324.319 16.5937 324.319 14.9034C324.319 13.1989 324.628 11.7109 325.246 10.4396C325.871 9.16832 326.738 8.18111 327.846 7.47798C328.961 6.77486 330.257 6.4233 331.734 6.4233C333.211 6.4233 334.504 6.77486 335.612 7.47798C336.727 8.18111 337.593 9.16832 338.211 10.4396C338.836 11.7109 339.149 13.1989 339.149 14.9034C339.149 16.5937 338.836 18.071 338.211 19.3352C337.593 20.5994 336.727 21.5831 335.612 22.2862C334.504 22.9893 333.211 23.3409 331.734 23.3409ZM331.734 21.0824C332.856 21.0824 333.779 20.7947 334.504 20.2195C335.228 19.6442 335.765 18.8878 336.113 17.9503C336.461 17.0128 336.635 15.9972 336.635 14.9034C336.635 13.8097 336.461 12.7905 336.113 11.8459C335.765 10.9013 335.228 10.1378 334.504 9.5554C333.779 8.97301 332.856 8.68182 331.734 8.68182C330.612 8.68182 329.689 8.97301 328.964 9.5554C328.24 10.1378 327.703 10.9013 327.355 11.8459C327.007 12.7905 326.833 13.8097 326.833 14.9034C326.833 15.9972 327.007 17.0128 327.355 17.9503C327.703 18.8878 328.24 19.6442 328.964 20.2195C329.689 20.7947 330.612 21.0824 331.734 21.0824ZM342.987 23V6.63636H345.416V9.10795H345.586C345.884 8.2983 346.424 7.64134 347.205 7.13707C347.987 6.63281 348.867 6.38068 349.847 6.38068C350.032 6.38068 350.263 6.38423 350.54 6.39133C350.817 6.39844 351.026 6.40909 351.169 6.4233V8.98011C351.083 8.95881 350.888 8.92685 350.583 8.88423C350.284 8.83452 349.968 8.80966 349.634 8.80966C348.839 8.80966 348.129 8.97656 347.504 9.31037C346.886 9.63707 346.396 10.0916 346.034 10.674C345.678 11.2493 345.501 11.9062 345.501 12.6449V23H342.987ZM360.512 23.3409C358.935 23.3409 357.575 22.9929 356.431 22.2969C355.295 21.5938 354.418 20.6136 353.8 19.3565C353.189 18.0923 352.884 16.6222 352.884 14.946C352.884 13.2699 353.189 11.7926 353.8 10.5142C354.418 9.22869 355.277 8.22727 356.378 7.50994C357.486 6.78551 358.779 6.4233 360.256 6.4233C361.108 6.4233 361.95 6.56534 362.781 6.84943C363.612 7.13352 364.368 7.59517 365.05 8.23438C365.732 8.86648 366.275 9.70455 366.68 10.7486C367.085 11.7926 367.287 13.0781 367.287 14.6051V15.6705H354.673V13.4972H364.73C364.73 12.5739 364.546 11.75 364.176 11.0256C363.814 10.3011 363.296 9.7294 362.621 9.31037C361.953 8.89133 361.165 8.68182 360.256 8.68182C359.254 8.68182 358.388 8.9304 357.656 9.42756C356.932 9.91761 356.374 10.5568 355.984 11.3452C355.593 12.1335 355.398 12.9787 355.398 13.8807V15.3295C355.398 16.5653 355.611 17.6129 356.037 18.4723C356.47 19.3246 357.07 19.9744 357.838 20.4219C358.605 20.8622 359.496 21.0824 360.512 21.0824C361.172 21.0824 361.769 20.9901 362.301 20.8054C362.841 20.6136 363.306 20.3295 363.697 19.9531C364.088 19.5696 364.389 19.0937 364.602 18.5256L367.031 19.2074C366.776 20.0312 366.346 20.7557 365.742 21.3807C365.139 21.9986 364.393 22.4815 363.505 22.8295C362.617 23.1705 361.619 23.3409 360.512 23.3409ZM371.112 23V6.63636H373.541V9.10795H373.711C374.009 8.2983 374.549 7.64134 375.33 7.13707C376.112 6.63281 376.992 6.38068 377.972 6.38068C378.157 6.38068 378.388 6.38423 378.665 6.39133C378.942 6.39844 379.151 6.40909 379.294 6.4233V8.98011C379.208 8.95881 379.013 8.92685 378.708 8.88423C378.409 8.83452 378.093 8.80966 377.759 8.80966C376.964 8.80966 376.254 8.97656 375.629 9.31037C375.011 9.63707 374.521 10.0916 374.159 10.674C373.803 11.2493 373.626 11.9062 373.626 12.6449V23H371.112Z" fill="url(#paint0_linear_7_354)"/>
<defs>
<linearGradient id="paint0_linear_7_354" x1="266.085" y1="-6" x2="380" y2="-6" gradientUnits="userSpaceOnUse">
<stop stop-color="#43999E"/>
<stop offset="1" stop-color="#95E3C9"/>
</linearGradient>
</defs>
</svg>
