<?xml version="1.0" standalone="no"?>
<!DOCTYPE svg PUBLIC "-//W3C//DTD SVG 20010904//EN"
 "http://www.w3.org/TR/2001/REC-SVG-20010904/DTD/svg10.dtd">
<svg version="1.0" xmlns="http://www.w3.org/2000/svg"
 width="1000.000000pt" height="1000.000000pt" viewBox="0 0 1000.000000 1000.000000"
 preserveAspectRatio="xMidYMid meet">
<metadata>
Created by potrace 1.14, written by Peter Selinger 2001-2017
</metadata>
<g transform="translate(0.000000,1000.000000) scale(0.100000,-0.100000)"
fill="#000000" stroke="none">
<path d="M4865 8704 c-71 -42 -155 -90 -185 -109 -30 -18 -75 -44 -100 -57
-25 -14 -128 -74 -230 -133 -102 -59 -202 -117 -223 -129 -20 -11 -81 -46
-135 -77 -53 -31 -113 -66 -132 -77 -19 -11 -75 -43 -125 -72 -49 -29 -104
-61 -122 -71 -17 -10 -134 -77 -260 -150 -125 -72 -298 -172 -383 -221 -85
-49 -162 -93 -170 -98 -60 -37 -223 -130 -226 -130 -3 0 -30 -16 -60 -35 -30
-19 -57 -35 -59 -35 -3 0 -38 -20 -78 -43 -39 -24 -118 -70 -175 -103 -57 -32
-125 -72 -150 -87 -26 -15 -60 -35 -77 -43 -16 -8 -75 -41 -130 -74 l-100 -59
0 -1884 c0 -1905 0 -1900 32 -1910 5 -1 7 -6 5 -10 -1 -5 2 -5 8 -2 6 4 19 0
29 -9 17 -16 40 -24 86 -31 41 -6 274 -17 375 -17 110 -1 449 11 478 17 9 1
60 6 112 10 52 4 102 9 112 10 9 2 48 7 85 10 37 4 77 9 88 11 11 2 43 6 70 9
28 4 64 8 80 11 49 9 67 12 125 19 30 4 58 9 61 11 4 2 24 6 45 9 22 3 50 8
64 11 14 2 39 7 55 10 17 2 107 21 200 40 94 20 177 37 185 39 83 17 430 106
596 154 421 120 764 237 1179 401 99 39 189 75 200 80 11 5 70 30 130 56 223
94 710 327 890 427 95 52 229 127 245 137 409 242 673 418 912 608 l67 53 0
92 c2 176 2 672 0 682 -1 6 -1 14 1 20 4 23 5 927 0 934 -3 4 -12 11 -20 14
-8 4 -28 15 -45 25 -16 10 -51 30 -77 45 -26 14 -117 67 -202 116 -85 50 -171
100 -190 111 -45 25 -39 22 -391 225 -159 92 -303 176 -320 186 -16 10 -37 22
-45 26 -8 3 -31 16 -50 28 -19 12 -55 33 -80 47 -68 38 -441 253 -563 325 -59
34 -110 63 -114 63 -3 0 -14 6 -22 14 -9 7 -47 30 -86 51 -38 21 -74 41 -80
45 -21 16 -259 150 -267 150 -4 0 -8 3 -8 8 0 4 -17 15 -37 25 -55 26 -98 51
-101 60 -2 4 -8 7 -13 7 -5 0 -39 18 -75 40 -36 22 -70 40 -74 40 -5 0 -15 6
-22 13 -8 6 -34 23 -58 37 -25 13 -106 59 -180 102 -74 43 -137 78 -140 78 -3
-1 -63 -35 -135 -76z"/>
<path d="M7506 7462 c-2 -4 50 -39 117 -77 67 -39 146 -85 177 -102 30 -18 64
-37 75 -43 11 -6 36 -20 55 -32 19 -11 53 -31 75 -43 22 -13 81 -46 130 -75
83 -48 99 -53 210 -71 335 -52 602 -161 756 -309 47 -44 98 -129 119 -197 33
-108 22 -251 -30 -391 -24 -63 -105 -219 -126 -243 -8 -8 -14 -19 -14 -23 0
-22 -171 -235 -280 -350 -159 -167 -284 -282 -455 -417 -44 -35 -82 -66 -85
-69 -3 -3 -41 -32 -85 -66 -160 -121 -342 -244 -555 -375 -242 -149 -258 -158
-543 -313 -173 -94 -521 -263 -732 -356 -22 -10 -76 -33 -120 -53 -94 -41
-332 -139 -390 -160 -22 -8 -49 -18 -60 -23 -11 -4 -22 -8 -25 -9 -3 -1 -16
-6 -30 -12 -36 -16 -228 -86 -340 -123 -52 -18 -104 -36 -115 -40 -11 -5 -65
-23 -120 -40 -55 -18 -125 -40 -155 -50 -52 -17 -142 -44 -295 -89 -73 -21
-296 -80 -324 -86 -20 -4 -218 -52 -291 -70 -64 -16 -387 -81 -444 -90 -21 -3
-41 -7 -45 -9 -3 -2 -30 -7 -60 -11 -30 -4 -61 -8 -70 -10 -48 -9 -109 -18
-131 -20 -14 -1 -43 -5 -65 -8 -22 -4 -60 -9 -85 -12 -25 -3 -61 -7 -80 -10
-219 -28 -529 -48 -761 -47 -129 0 -317 8 -419 17 -96 9 -160 17 -210 26 -30
6 -66 12 -80 14 -14 2 -47 9 -75 15 -27 6 -59 13 -69 16 -59 12 -230 71 -301
103 -343 159 -460 399 -350 720 75 220 237 453 500 717 93 94 197 194 230 222
33 28 70 59 82 69 21 19 22 25 22 271 l0 253 -32 -23 c-35 -24 -219 -168 -227
-177 -3 -3 -34 -31 -70 -61 -207 -175 -436 -409 -571 -585 -56 -73 -139 -194
-139 -202 0 -4 -6 -14 -14 -22 -22 -25 -93 -164 -132 -257 -83 -202 -109 -405
-73 -591 74 -386 398 -668 934 -813 44 -12 91 -24 105 -26 14 -3 57 -11 95
-19 39 -7 88 -16 110 -19 22 -4 51 -8 65 -11 14 -2 52 -7 85 -10 33 -3 78 -8
100 -10 142 -15 554 -21 730 -10 217 13 264 16 300 21 22 2 67 6 100 9 33 3
71 7 85 9 14 3 50 8 80 11 30 3 64 7 75 9 11 2 47 7 80 11 32 3 62 8 65 10 3
1 32 6 65 10 32 3 62 8 65 10 3 2 29 6 59 10 30 4 63 9 75 11 12 3 32 7 46 9
14 2 37 7 53 10 15 3 37 7 50 9 12 3 47 10 77 16 30 6 66 14 80 16 730 146
1779 485 2485 804 22 10 65 29 95 42 144 64 244 112 470 227 282 144 344 176
385 202 17 10 40 23 51 28 28 12 359 211 449 269 164 106 317 211 425 290 105
78 288 219 300 232 3 3 21 18 40 34 130 106 401 369 490 475 25 29 50 59 55
65 6 6 35 43 64 81 29 39 59 78 67 88 31 38 119 186 165 277 101 201 145 389
136 580 -14 284 -146 512 -401 694 -122 88 -324 180 -496 226 -25 7 -56 16
-70 21 -43 14 -211 47 -320 63 -103 14 -164 21 -285 32 -100 8 -554 13 -559 6z"/>
<path d="M8205 4383 c-62 -46 -297 -200 -383 -250 -35 -21 -71 -43 -80 -48 -9
-6 -48 -29 -87 -51 -72 -43 -93 -55 -218 -124 -40 -22 -79 -44 -87 -50 -27
-17 -583 -295 -670 -335 -427 -194 -832 -355 -1279 -507 -170 -57 -526 -169
-581 -183 -14 -3 -80 -21 -170 -47 -19 -5 -51 -13 -70 -18 -19 -5 -71 -18
-115 -30 -128 -32 -337 -82 -370 -87 -16 -2 -43 -8 -60 -13 -53 -16 -425 -85
-560 -104 -22 -4 -51 -8 -65 -11 -76 -14 -440 -57 -487 -58 -16 0 -17 -17 -2
-17 5 0 7 -5 3 -12 -4 -6 -3 -9 2 -5 14 8 76 -21 69 -33 -4 -6 -3 -10 2 -9 23
4 41 -3 63 -23 14 -13 26 -22 27 -21 7 6 72 -31 67 -38 -2 -4 5 -6 16 -4 13 2
20 -1 20 -11 0 -8 4 -13 9 -10 5 3 14 -1 21 -9 7 -8 16 -12 21 -9 5 3 9 0 9
-6 0 -6 5 -8 10 -5 6 3 10 -1 10 -10 0 -10 5 -13 12 -9 6 4 17 -1 25 -11 7
-11 13 -15 13 -11 0 5 7 3 15 -4 8 -7 15 -9 15 -6 0 4 10 -2 22 -14 12 -11 28
-20 35 -20 7 0 13 -5 13 -11 0 -5 4 -8 9 -5 5 3 14 -1 21 -9 7 -8 19 -15 26
-15 8 0 14 -5 14 -11 0 -5 5 -7 10 -4 6 3 10 1 10 -4 0 -6 8 -11 18 -11 10 0
24 -9 31 -19 8 -11 21 -17 29 -13 10 3 13 1 8 -6 -5 -8 0 -12 13 -12 12 0 21
-4 21 -10 0 -5 7 -10 15 -10 8 0 15 -4 15 -10 0 -5 7 -7 15 -4 8 4 15 1 15 -5
0 -10 52 -41 123 -73 15 -7 27 -16 27 -20 0 -4 6 -8 14 -8 8 0 16 -3 18 -7 2
-5 22 -18 46 -30 101 -54 121 -67 116 -74 -2 -4 1 -11 7 -15 8 -4 9 -3 5 4 -4
7 -5 12 -2 12 11 0 66 -37 61 -41 -2 -3 6 -6 18 -6 12 -1 23 -7 25 -13 2 -5
12 -10 22 -10 10 0 26 -10 34 -22 9 -12 16 -19 16 -15 0 5 13 0 29 -9 17 -10
28 -21 25 -25 -2 -5 4 -6 14 -4 11 2 30 -6 43 -18 14 -12 31 -23 39 -25 8 -2
18 -8 21 -14 3 -5 10 -10 15 -11 5 -1 8 -6 6 -11 -2 -5 4 -6 12 -3 9 4 22 0
30 -8 8 -8 22 -15 31 -15 9 0 13 -4 10 -10 -3 -5 1 -10 9 -10 9 0 16 -4 16
-10 0 -5 3 -9 8 -8 13 3 62 -25 62 -35 0 -6 3 -7 6 -4 10 10 84 -35 77 -46 -4
-6 0 -8 8 -5 9 3 26 -3 40 -13 13 -10 30 -19 37 -19 7 0 10 -4 7 -10 -3 -5 0
-7 8 -4 8 3 20 -2 27 -11 7 -8 19 -15 27 -15 8 0 11 -5 7 -12 -4 -7 -4 -10 1
-6 10 9 65 -19 65 -33 0 -6 5 -7 10 -4 6 3 17 -1 26 -9 9 -9 20 -14 25 -11 5
4 9 0 9 -8 0 -27 41 -13 148 50 40 24 77 43 82 43 6 0 10 5 10 10 0 6 6 10 13
10 7 0 36 15 65 34 28 19 52 33 52 30 0 -3 17 7 37 21 21 14 41 25 44 25 4 0
31 16 60 35 30 19 59 35 66 35 7 0 13 3 13 8 0 4 21 18 48 32 26 13 49 27 52
30 3 4 41 26 85 50 44 24 82 47 83 52 2 4 8 8 13 8 6 0 48 23 95 50 47 28 89
50 94 50 6 0 10 5 10 10 0 6 4 10 10 10 5 0 31 13 58 29 26 15 68 39 93 53 24
14 100 58 169 98 142 83 175 102 320 185 58 32 108 63 111 68 3 5 10 9 15 9 5
1 18 6 29 13 46 28 146 85 151 85 3 0 10 5 17 10 18 16 169 100 179 100 4 0 8
5 8 10 0 6 4 10 10 10 5 0 44 20 86 45 41 25 77 45 80 45 2 0 28 16 58 35 30
19 57 35 60 35 5 0 121 67 156 90 8 6 30 17 48 25 18 9 62 33 97 55 36 22 70
40 75 40 6 0 10 5 10 10 0 6 5 10 11 10 6 0 44 19 83 43 39 24 78 46 86 50 8
4 38 21 65 37 28 17 69 40 93 52 39 20 42 25 43 62 1 76 -3 1256 -5 1256 0 0
-23 -17 -51 -37z"/>
</g>
</svg>
